<!-- Generated by graphviz version 16.1.0 (0)
 -->
<!-- Title: cef_monaco Pages: 1 -->
<svg width="944pt" height="114pt"
 viewBox="0.00 0.00 944.00 114.00" xmlns="http://www.w3.org/2000/svg" xmlns:xlink="http://www.w3.org/1999/xlink">
<g id="graph0" class="graph" transform="scale(1 1) rotate(0) translate(4 110)">
<title>cef_monaco</title>
<g id="clust1" class="cluster">
<title>cluster_form</title>
<path fill="none" stroke="#7a8090" d="M20,-8C20,-8 916.35,-8 916.35,-8 922.35,-8 928.35,-14 928.35,-20 928.35,-20 928.35,-86 928.35,-86 928.35,-92 922.35,-98 916.35,-98 916.35,-98 20,-98 20,-98 14,-98 8,-92 8,-86 8,-86 8,-20 8,-20 8,-14 14,-8 20,-8"/>
<text xml:space="preserve" text-anchor="middle" x="64.16" y="-82.3" font-family="Inter,system-ui,-apple-system,Segoe UI,sans-serif" font-size="13.00">twinBASIC form</text>
</g>
<!-- WEBVIEW -->
<g id="node1" class="node">
<title>WEBVIEW</title>
<path fill="#fef7e0" stroke="#f9ab00" d="M229.93,-60.48C229.93,-60.48 34,-60.48 34,-60.48 28,-60.48 22,-54.48 22,-48.48 22,-48.48 22,-35.52 22,-35.52 22,-29.52 28,-23.52 34,-23.52 34,-23.52 229.93,-23.52 229.93,-23.52 235.93,-23.52 241.93,-29.52 241.93,-35.52 241.93,-35.52 241.93,-48.48 241.93,-48.48 241.93,-54.48 235.93,-60.48 229.93,-60.48"/>
<text xml:space="preserve" text-anchor="start" x="103.76" y="-44.2" font-family="Inter,system-ui,-apple-system,Segoe UI,sans-serif" font-weight="bold" font-size="12.00">WebView</text>
<text xml:space="preserve" text-anchor="start" x="33.52" y="-32.2" font-family="Inter,system-ui,-apple-system,Segoe UI,sans-serif" font-style="italic" font-size="12.00">CefBrowser hosting Monaco editor</text>
</g>
<!-- HANDLER -->
<g id="node2" class="node">
<title>HANDLER</title>
<path fill="#fef7e0" stroke="#f9ab00" d="M512.3,-60.48C512.3,-60.48 403.45,-60.48 403.45,-60.48 397.45,-60.48 391.45,-54.48 391.45,-48.48 391.45,-48.48 391.45,-35.52 391.45,-35.52 391.45,-29.52 397.45,-23.52 403.45,-23.52 403.45,-23.52 512.3,-23.52 512.3,-23.52 518.3,-23.52 524.3,-29.52 524.3,-35.52 524.3,-35.52 524.3,-48.48 524.3,-48.48 524.3,-54.48 518.3,-60.48 512.3,-60.48"/>
<text xml:space="preserve" text-anchor="start" x="402.97" y="-44.2" font-family="Inter,system-ui,-apple-system,Segoe UI,sans-serif" font-size="12.00">JsMessage handler</text>
<text xml:space="preserve" text-anchor="start" x="408.3" y="-32.2" font-family="Inter,system-ui,-apple-system,Segoe UI,sans-serif" font-style="italic" font-size="12.00">(twinBASIC code)</text>
</g>
<!-- WEBVIEW&#45;&gt;HANDLER -->
<g id="edge1" class="edge">
<title>WEBVIEW&#45;&gt;HANDLER</title>
<path fill="none" stroke="#7a8090" d="M242.18,-42C288.4,-42 341.05,-42 382.65,-42"/>
<polygon fill="#7a8090" stroke="#7a8090" points="382.57,-44.45 389.57,-42 382.57,-39.55 382.57,-44.45"/>
<text xml:space="preserve" text-anchor="middle" x="316.69" y="-45.3" font-family="Inter,system-ui,-apple-system,Segoe UI,sans-serif" font-size="11.00">postMessage(html)</text>
</g>
<!-- PREVIEW -->
<g id="node3" class="node">
<title>PREVIEW</title>
<path fill="#fef7e0" stroke="#f9ab00" d="M902.35,-60.48C902.35,-60.48 706.27,-60.48 706.27,-60.48 700.27,-60.48 694.27,-54.48 694.27,-48.48 694.27,-48.48 694.27,-35.52 694.27,-35.52 694.27,-29.52 700.27,-23.52 706.27,-23.52 706.27,-23.52 902.35,-23.52 902.35,-23.52 908.35,-23.52 914.35,-29.52 914.35,-35.52 914.35,-35.52 914.35,-48.48 914.35,-48.48 914.35,-54.48 908.35,-60.48 902.35,-60.48"/>
<text xml:space="preserve" text-anchor="start" x="752.44" y="-44.2" font-family="Inter,system-ui,-apple-system,Segoe UI,sans-serif" font-weight="bold" font-size="12.00">WebViewPreview</text>
<text xml:space="preserve" text-anchor="start" x="705.79" y="-32.2" font-family="Inter,system-ui,-apple-system,Segoe UI,sans-serif" font-style="italic" font-size="12.00">CefBrowser hosting HTML preview</text>
</g>
<!-- HANDLER&#45;&gt;PREVIEW -->
<g id="edge2" class="edge">
<title>HANDLER&#45;&gt;PREVIEW</title>
<path fill="none" stroke="#7a8090" d="M524.47,-42C569.96,-42 631.8,-42 685.69,-42"/>
<polygon fill="#7a8090" stroke="#7a8090" points="685.41,-44.45 692.41,-42 685.41,-39.55 685.41,-44.45"/>
<text xml:space="preserve" text-anchor="middle" x="609.29" y="-45.3" font-family="Inter,system-ui,-apple-system,Segoe UI,sans-serif" font-size="11.00">NavigateToString(html)</text>
</g>
</g>
</svg>
